# xmcd
#
# Track frame offsets:
#	150
#	11760
#	24357
#	38593
#	49691
#	64376
#	73983
#	88456
#	99889
#	110113
#	122309
#	133397
#	149813
#	160673
#	173356
#
# Disc length: 2611 seconds
#
# Revision: 0
# Processed by: cddbd v1.5PL3 Copyright (c) Steve Scherf et al.
# Submitted via: dBpowerAMP V4.0
#
DISCID=d30a310f
DTITLE=Various Artist - Heaven Bound - The Best of Bluegrass Gospel - Disc 2
DYEAR=2003
DGENRE=Bluegrass Gospel
TTITLE0=Jimmy Martin - Prayer Bells
TTITLE1=Lester Flatt and Earl Scruggs with the Foggy Mountain Boys - He Took Your Place
TTITLE2=Emmylou Harris - Green Pastures
TTITLE3=Stanley Brothers - Gathering Flowers for the Master's Bouquet
TTITLE4=Bill Monroe and His Blue Grass Boys - Precious Memories
TTITLE5=Doyle Lawson and Quicksilver - On the Sea of Life
TTITLE6=Osborne Brothers - How Great Thou Art
TTITLE7=Reno and Smiley - I'm Using My Bible for a Roadmap
TTITLE8=Lewis Family - Just One Rose Will Do
TTITLE9=Bill Monroe and His Blue Grass Boys - The Old Crossroad (Is Waiting)
TTITLE10=Lester Flatt and Earl Scruggs with the Foggy Mountain Boys - Father's Table Grace
TTITLE11=Seldom Scene - Working on a Building
TTITLE12=Charlie Moore - He Will Set Your Fields on Fire
TTITLE13=Ralph Stanley, Judy Marshall and Alison Krauss - Vision of Mother
TTITLE14=Isaacs - Land of Beulah
EXTD=UPC=6-10583-07652-3
EXTT0=
EXTT1=
EXTT2=
EXTT3=
EXTT4=
EXTT5=
EXTT6=
EXTT7=
EXTT8=
EXTT9=
EXTT10=
EXTT11=
EXTT12=
EXTT13=
EXTT14=
PLAYORDER=
